<svg xmlns="http://www.w3.org/2000/svg" version="1.1" viewBox="1.0688406229019165 1.5632097721099854 446.92041015625 527.8153686523438" width="449.00" height="531.00">
<path fill="#14303a" d="&#10;  M 235.07 18.44&#10;  A 0.70 0.70 0.0 0 0 234.55 17.31&#10;  C 193.69 15.05 151.76 26.39 119.29 51.53&#10;  Q 117.89 52.62 115.76 53.64&#10;  A 1.18 1.18 0.0 0 1 114.23 53.16&#10;  L 107.80 42.02&#10;  A 0.99 0.99 0.0 0 1 107.89 40.90&#10;  Q 108.90 39.68 110.64 38.41&#10;  Q 146.07 12.64 186.79 4.98&#10;  Q 223.87 -2.01 260.68 5.30&#10;  A 0.64 0.64 0.0 0 1 261.12 6.23&#10;  C 259.57 9.15 257.13 13.74 254.90 16.60&#10;  C 246.44 27.44 237.08 39.70 232.45 52.98&#10;  Q 231.10 56.83 230.08 65.11&#10;  Q 229.84 66.99 229.29 67.97&#10;  C 227.51 71.13 221.40 70.51 218.16 69.86&#10;  C 215.15 69.25 214.65 65.54 214.91 62.88&#10;  C 216.46 46.68 225.04 31.28 235.07 18.44&#10;  Z"/>
<path fill="#14303a" d="&#10;  M 394.08 180.86&#10;  A 0.70 0.70 0.0 0 0 394.84 180.15&#10;  Q 394.08 153.00 384.99 127.70&#10;  C 372.76 93.65 348.08 63.21 317.39 44.01&#10;  Q 294.79 29.88 269.28 22.94&#10;  A 0.94 0.94 0.0 0 1 268.63 21.73&#10;  Q 270.69 15.63 273.29 10.10&#10;  Q 274.13 8.32 276.15 8.87&#10;  C 311.30 18.48 343.25 38.86 366.95 66.98&#10;  Q 414.80 123.77 409.63 198.81&#10;  A 1.16 1.16 0.0 0 1 408.24 199.87&#10;  Q 394.19 196.99 385.59 195.21&#10;  Q 369.03 191.78 351.76 191.70&#10;  Q 347.74 191.68 344.26 191.91&#10;  C 339.63 192.22 332.02 193.37 331.72 187.04&#10;  Q 331.57 183.76 331.89 180.32&#10;  Q 332.02 178.96 332.89 178.26&#10;  Q 334.34 177.09 335.01 177.06&#10;  Q 358.24 176.01 381.28 178.83&#10;  C 385.07 179.29 390.44 180.54 394.08 180.86&#10;  Z"/>
<path fill="#14303a" d="&#10;  M 90.07 80.04&#10;  A 0.52 0.46 -75.1 0 0 89.83 80.20&#10;  Q 69.10 105.94 60.02 136.98&#10;  Q 57.45 145.76 55.63 153.16&#10;  Q 55.35 154.30 54.21 154.02&#10;  L 41.29 150.89&#10;  A 0.86 0.86 0.0 0 1 40.65 149.87&#10;  C 48.51 112.65 67.87 76.04 96.50 50.31&#10;  A 1.38 1.37 62.4 0 1 98.76 51.02&#10;  Q 101.88 64.44 104.00 72.31&#10;  Q 108.05 87.41 115.91 100.36&#10;  C 118.30 104.31 116.79 107.45 113.46 110.16&#10;  C 107.79 114.79 103.57 109.08 100.71 104.19&#10;  Q 94.76 94.01 90.87 80.54&#10;  Q 90.68 79.88 90.07 80.04&#10;  Z"/>
<path fill="#14303a" d="&#10;  M 319.57 124.41&#10;  A 18.94 18.94 0.0 0 1 300.63 143.35&#10;  L 148.29 143.35&#10;  A 18.94 18.94 0.0 0 1 129.35 124.41&#10;  L 129.35 99.59&#10;  A 18.94 18.94 0.0 0 1 148.29 80.65&#10;  L 300.63 80.65&#10;  A 18.94 18.94 0.0 0 1 319.57 99.59&#10;  L 319.57 124.41&#10;  Z&#10;  M 305.73 101.55&#10;  A 6.98 6.98 0.0 0 0 298.75 94.57&#10;  L 149.87 94.57&#10;  A 6.98 6.98 0.0 0 0 142.89 101.55&#10;  L 142.89 122.43&#10;  A 6.98 6.98 0.0 0 0 149.87 129.41&#10;  L 298.75 129.41&#10;  A 6.98 6.98 0.0 0 0 305.73 122.43&#10;  L 305.73 101.55&#10;  Z"/>
<rect fill="#14303a" x="-6.18" y="-6.14" transform="translate(290.91,112.04) rotate(-1.2)" width="12.36" height="12.28" rx="2.45"/>
<path fill="#14303a" d="&#10;  M 152.55 115.94&#10;  L 152.55 108.52&#10;  A 2.35 2.35 0.0 0 1 154.90 106.17&#10;  L 162.98 106.17&#10;  A 2.35 2.35 0.0 0 1 165.33 108.52&#10;  L 165.33 115.94&#10;  A 2.35 2.35 0.0 0 1 162.98 118.29&#10;  L 154.90 118.29&#10;  A 2.35 2.35 0.0 0 1 152.55 115.94&#10;  Z"/>
<rect fill="#14303a" x="-6.24" y="-6.02" transform="translate(232.02,112.12) rotate(-0.2)" width="12.48" height="12.04" rx="2.14"/>
<rect fill="#14303a" x="-6.35" y="-5.94" transform="translate(251.78,112.30) rotate(-1.5)" width="12.70" height="11.88" rx="2.25"/>
<rect fill="#14303a" x="-6.42" y="-5.87" transform="translate(271.39,112.25) rotate(-1.0)" width="12.84" height="11.74" rx="2.32"/>
<path fill="#14303a" d="&#10;  M 319.5187 196.4260&#10;  A 19.27 19.27 0.0 0 1 300.2151 215.6624&#10;  L 148.4753 215.3975&#10;  A 19.27 19.27 0.0 0 1 129.2390 196.0939&#10;  L 129.2813 171.8740&#10;  A 19.27 19.27 0.0 0 1 148.5849 152.6376&#10;  L 300.3247 152.9025&#10;  A 19.27 19.27 0.0 0 1 319.5610 172.2061&#10;  L 319.5187 196.4260&#10;  Z&#10;  M 305.62 173.58&#10;  A 6.78 6.78 0.0 0 0 298.84 166.80&#10;  L 149.64 166.80&#10;  A 6.78 6.78 0.0 0 0 142.86 173.58&#10;  L 142.86 194.52&#10;  A 6.78 6.78 0.0 0 0 149.64 201.30&#10;  L 298.84 201.30&#10;  A 6.78 6.78 0.0 0 0 305.62 194.52&#10;  L 305.62 173.58&#10;  Z"/>
<path fill="#14303a" d="&#10;  M 52.95 185.03&#10;  Q 53.48 227.91 73.94 265.10&#10;  C 92.75 299.31 125.10 326.29 161.91 339.83&#10;  Q 168.34 342.20 174.45 344.14&#10;  A 1.43 1.43 0.0 0 1 175.38 345.93&#10;  Q 173.67 351.46 170.97 356.71&#10;  C 170.18 358.23 169.28 358.94 167.47 358.38&#10;  C 125.88 345.67 88.80 318.15 65.46 281.15&#10;  Q 39.94 240.69 38.00 192.28&#10;  Q 37.44 178.47 38.40 165.29&#10;  A 1.23 1.22 5.0 0 1 39.75 164.16&#10;  Q 42.22 164.43 43.81 164.92&#10;  C 56.46 168.76 65.57 171.97 76.61 173.97&#10;  Q 93.09 176.95 110.72 176.85&#10;  Q 113.84 176.83 115.39 177.92&#10;  Q 115.81 178.21 115.91 178.71&#10;  Q 117.02 184.52 115.85 190.08&#10;  Q 115.74 190.57 115.34 190.88&#10;  C 112.88 192.81 107.04 192.37 103.54 192.20&#10;  Q 96.92 191.86 84.51 190.45&#10;  Q 68.87 188.67 53.84 184.35&#10;  A 0.70 0.70 0.0 0 0 52.95 185.03&#10;  Z"/>
<path fill="#14303a" d="&#10;  M 287.13 177.91&#10;  L 294.41 177.91&#10;  A 2.52 2.52 0.0 0 1 296.93 180.43&#10;  L 296.93 187.70&#10;  A 2.52 2.52 0.0 0 1 294.41 190.22&#10;  L 287.13 190.22&#10;  A 2.52 2.52 0.0 0 1 284.61 187.70&#10;  L 284.61 180.43&#10;  A 2.52 2.52 0.0 0 1 287.13 177.91&#10;  Z"/>
<path fill="#14303a" d="&#10;  M 152.49 187.90&#10;  L 152.49 180.50&#10;  A 2.27 2.27 0.0 0 1 154.76 178.23&#10;  L 162.89 178.23&#10;  A 2.27 2.27 0.0 0 1 165.16 180.50&#10;  L 165.16 187.90&#10;  A 2.27 2.27 0.0 0 1 162.89 190.17&#10;  L 154.76 190.17&#10;  A 2.27 2.27 0.0 0 1 152.49 187.90&#10;  Z"/>
<rect fill="#14303a" x="-6.26" y="-6.00" transform="translate(232.18,183.98) rotate(-1.1)" width="12.52" height="12.00" rx="2.24"/>
<rect fill="#14303a" x="-6.22" y="-6.02" transform="translate(251.68,184.09) rotate(-0.6)" width="12.44" height="12.04" rx="2.30"/>
<rect fill="#14303a" x="-6.41" y="-5.87" transform="translate(271.28,184.01) rotate(-0.3)" width="12.82" height="11.74" rx="2.01"/>
<path fill="#14303a" d="&#10;  M 357.47 288.72&#10;  Q 357.78 288.56 358.34 287.84&#10;  Q 384.28 254.58 392.43 213.42&#10;  Q 392.81 211.50 394.76 211.76&#10;  L 406.40 213.32&#10;  A 1.22 1.22 0.0 0 1 407.44 214.72&#10;  C 400.84 255.09 379.68 292.33 349.68 319.91&#10;  A 0.82 0.82 0.0 0 1 348.49 319.82&#10;  Q 348.33 319.62 348.08 319.16&#10;  C 344.91 313.30 344.66 303.52 343.42 297.92&#10;  Q 340.13 283.20 331.80 268.97&#10;  Q 330.63 266.98 330.44 264.65&#10;  C 330.06 259.95 337.21 256.61 341.00 258.77&#10;  Q 342.86 259.83 345.21 263.30&#10;  Q 353.12 274.96 356.63 288.34&#10;  A 0.59 0.59 0.0 0 0 357.47 288.72&#10;  Z"/>
<path fill="#14303a" d="&#10;  M 319.86 268.22&#10;  A 19.08 19.08 0.0 0 1 300.78 287.30&#10;  L 148.14 287.30&#10;  A 19.08 19.08 0.0 0 1 129.06 268.22&#10;  L 129.06 244.20&#10;  A 19.08 19.08 0.0 0 1 148.14 225.12&#10;  L 300.78 225.12&#10;  A 19.08 19.08 0.0 0 1 319.86 244.20&#10;  L 319.86 268.22&#10;  Z&#10;  M 306.12 245.92&#10;  A 6.99 6.99 0.0 0 0 299.13 238.93&#10;  L 149.81 238.93&#10;  A 6.99 6.99 0.0 0 0 142.82 245.92&#10;  L 142.82 266.42&#10;  A 6.99 6.99 0.0 0 0 149.81 273.41&#10;  L 299.13 273.41&#10;  A 6.99 6.99 0.0 0 0 306.12 266.42&#10;  L 306.12 245.92&#10;  Z"/>
<rect fill="#14303a" x="-6.29" y="-6.10" transform="translate(158.66,256.21) rotate(-0.2)" width="12.58" height="12.20" rx="2.12"/>
<rect fill="#14303a" x="-6.42" y="-6.07" transform="translate(231.99,256.17) rotate(-0.7)" width="12.84" height="12.14" rx="2.43"/>
<rect fill="#14303a" x="-6.22" y="-6.02" transform="translate(251.65,256.13) rotate(-1.0)" width="12.44" height="12.04" rx="2.15"/>
<path fill="#14303a" d="&#10;  M 277.56 252.38&#10;  L 277.56 259.91&#10;  A 2.32 2.32 0.0 0 1 275.24 262.23&#10;  L 267.47 262.23&#10;  A 2.32 2.32 0.0 0 1 265.15 259.91&#10;  L 265.15 252.38&#10;  A 2.32 2.32 0.0 0 1 267.47 250.06&#10;  L 275.24 250.06&#10;  A 2.32 2.32 0.0 0 1 277.56 252.38&#10;  Z"/>
<rect fill="#14303a" x="-6.16" y="-6.16" transform="translate(290.80,256.18) rotate(-1.3)" width="12.32" height="12.32" rx="2.30"/>
<path fill="#14303a" d="&#10;  M 209.89 351.18&#10;  Q 210.74 351.44 212.24 351.50&#10;  Q 276.57 354.44 328.54 316.70&#10;  A 2.13 2.13 0.0 0 1 331.35 316.96&#10;  Q 335.32 321.16 338.25 326.80&#10;  A 1.22 1.22 0.0 0 1 337.94 328.31&#10;  Q 332.35 332.85 326.52 336.53&#10;  Q 260.78 377.93 183.33 363.14&#10;  Q 182.11 362.91 182.60 361.77&#10;  C 185.34 355.42 188.07 351.48 193.37 345.44&#10;  C 201.36 336.33 209.01 326.48 213.36 315.08&#10;  C 214.99 310.79 215.62 305.92 216.21 301.25&#10;  C 216.47 299.26 217.49 298.14 219.48 297.57&#10;  C 222.72 296.64 231.52 295.29 231.43 300.90&#10;  C 231.22 314.48 225.03 328.72 217.27 339.69&#10;  C 214.20 344.04 212.55 346.56 209.48 349.43&#10;  A 1.04 1.04 0.0 0 0 209.89 351.18&#10;  Z"/>
<path fill="#14303a" d="&#10;  M 249.19 467.37&#10;  L 244.32 475.80&#10;  A 4.81 4.80 -74.9 0 1 240.16 478.20&#10;  L 226.55 478.20&#10;  A 1.68 1.68 0.0 0 1 225.00 477.17&#10;  Q 224.41 475.77 224.43 473.77&#10;  Q 224.47 469.19 224.41 462.00&#10;  Q 224.39 460.34 225.64 458.64&#10;  C 237.08 443.06 245.52 429.97 257.75 411.51&#10;  C 263.43 402.93 273.89 399.87 283.81 401.80&#10;  C 291.56 403.30 295.31 407.32 299.60 413.96&#10;  Q 316.37 439.95 329.73 458.71&#10;  A 5.07 5.04 27.0 0 1 330.67 461.58&#10;  Q 330.79 469.99 330.70 473.75&#10;  Q 330.60 477.55 326.77 477.82&#10;  Q 319.71 478.31 313.65 477.61&#10;  Q 311.90 477.40 310.50 475.04&#10;  Q 309.84 473.92 305.21 467.60&#10;  A 4.61 4.61 0.0 0 0 301.49 465.71&#10;  L 252.20 465.71&#10;  A 3.56 3.27 13.7 0 0 249.19 467.37&#10;  Z&#10;  M 263.73 443.25&#10;  A 1.77 1.77 0.0 0 0 265.23 445.99&#10;  L 290.13 445.90&#10;  A 1.77 1.77 0.0 0 0 291.60 443.16&#10;  L 279.08 424.11&#10;  A 1.77 1.77 0.0 0 0 276.12 424.12&#10;  L 263.73 443.25&#10;  Z"/>
<path fill="#14303a" d="&#10;  M 19.04 402.83&#10;  C 20.92 402.82 22.96 403.84 22.95 405.87&#10;  Q 22.80 429.20 23.20 447.78&#10;  C 23.36 455.49 28.35 456.38 35.12 456.42&#10;  Q 51.37 456.52 87.47 456.66&#10;  Q 90.86 456.67 90.86 460.06&#10;  Q 90.88 467.93 90.75 473.79&#10;  Q 90.67 477.80 87.05 477.82&#10;  Q 52.47 478.09 29.28 477.71&#10;  Q 8.09 477.35 2.37 458.98&#10;  Q 1.03 454.65 1.07 446.59&#10;  Q 1.14 433.00 1.08 406.32&#10;  Q 1.08 403.00 4.40 402.94&#10;  Q 7.73 402.88 19.04 402.83&#10;  Z"/>
<path fill="#14303a" d="&#10;  M 209.2398 451.5501&#10;  A 25.94 25.94 0.0 0 1 183.3905 477.5804&#10;  L 132.2108 477.7591&#10;  A 25.94 25.94 0.0 0 1 106.1804 451.9098&#10;  L 106.1002 428.9499&#10;  A 25.94 25.94 0.0 0 1 131.9495 402.9196&#10;  L 183.1292 402.7409&#10;  A 25.94 25.94 0.0 0 1 209.1596 428.5902&#10;  L 209.2398 451.5501&#10;  Z&#10;  M 187.28 432.30&#10;  A 8.60 8.60 0.0 0 0 178.68 423.70&#10;  L 136.34 423.70&#10;  A 8.60 8.60 0.0 0 0 127.74 432.30&#10;  L 127.74 447.98&#10;  A 8.60 8.60 0.0 0 0 136.34 456.58&#10;  L 178.68 456.58&#10;  A 8.60 8.60 0.0 0 0 187.28 447.98&#10;  L 187.28 432.30&#10;  Z"/>
<path fill="#14303a" d="&#10;  M 369.70 455.04&#10;  A 1.53 1.53 0.0 0 0 371.24 456.57&#10;  Q 392.29 456.43 410.16 456.53&#10;  Q 417.54 456.57 420.19 455.21&#10;  Q 425.35 452.55 425.91 445.58&#10;  Q 426.59 437.11 425.81 432.22&#10;  C 424.61 424.62 417.80 423.52 411.30 423.66&#10;  Q 407.32 423.75 353.26 423.84&#10;  Q 350.35 423.84 349.05 423.15&#10;  Q 348.60 422.92 348.38 422.46&#10;  C 347.39 420.42 347.87 413.80 347.86 407.34&#10;  Q 347.86 402.89 352.31 402.89&#10;  Q 411.87 402.83 418.74 402.86&#10;  C 434.68 402.92 446.86 412.44 447.57 429.07&#10;  C 447.98 438.64 448.64 449.20 446.41 457.06&#10;  Q 442.24 471.74 427.67 476.35&#10;  Q 423.38 477.71 415.78 477.76&#10;  Q 378.35 477.98 351.63 477.89&#10;  Q 348.13 477.88 348.13 474.38&#10;  L 348.13 438.60&#10;  A 2.91 2.91 0.0 0 1 351.04 435.69&#10;  L 366.87 435.69&#10;  Q 369.70 435.69 369.70 438.41&#10;  L 369.70 455.04&#10;  Z"/>
<path fill="#14303a" d="&#10;  M 43.62 512.00&#10;  Q 43.62 512.03 43.62 512.05&#10;  Q 43.62 512.16 43.70 512.25&#10;  Q 46.88 516.00 46.26 521.23&#10;  Q 45.85 524.68 43.32 526.80&#10;  Q 40.60 529.06 36.74 529.07&#10;  Q 20.90 529.07 8.34 529.12&#10;  C 3.51 529.14 1.29 529.35 1.30 523.94&#10;  Q 1.31 516.83 1.31 512.04&#10;  Q 1.31 507.25 1.28 500.14&#10;  C 1.26 494.73 3.48 494.94 8.31 494.95&#10;  Q 20.87 494.98 36.71 494.95&#10;  Q 40.57 494.96 43.29 497.21&#10;  Q 45.83 499.33 46.24 502.78&#10;  Q 46.87 508.00 43.70 511.76&#10;  Q 43.62 511.85 43.62 511.96&#10;  Q 43.62 511.98 43.62 512.00&#10;  Z&#10;  M 35.41 517.17&#10;  A 1.18 1.18 0.0 0 0 34.23 515.99&#10;  L 17.13 515.99&#10;  A 1.18 1.18 0.0 0 1 15.95 514.81&#10;  L 15.95 509.78&#10;  A 1.18 1.18 0.0 0 1 17.13 508.60&#10;  L 33.63 508.60&#10;  A 1.18 1.18 0.0 0 0 34.81 507.42&#10;  L 34.81 504.25&#10;  A 1.18 1.18 0.0 0 0 33.63 503.07&#10;  L 13.72 503.07&#10;  A 1.18 1.18 0.0 0 0 12.54 504.25&#10;  L 12.54 519.92&#10;  A 1.18 1.18 0.0 0 0 13.72 521.10&#10;  L 34.23 521.10&#10;  A 1.18 1.18 0.0 0 0 35.41 519.92&#10;  L 35.41 517.17&#10;  Z"/>
<path fill="#14303a" d="&#10;  M 73.51 522.05&#10;  A 1.72 1.70 15.9 0 0 72.06 522.85&#10;  Q 70.55 525.29 68.92 527.40&#10;  C 67.13 529.71 63.08 529.41 60.29 529.08&#10;  Q 58.58 528.88 57.93 528.15&#10;  A 1.54 1.51 23.6 0 1 57.55 527.20&#10;  Q 57.46 525.37 58.66 523.64&#10;  Q 71.82 504.62 74.90 499.64&#10;  Q 77.31 495.73 80.19 495.22&#10;  C 81.83 494.92 88.51 494.22 90.69 496.06&#10;  Q 91.78 496.98 92.59 498.23&#10;  Q 101.15 511.52 109.03 523.22&#10;  C 109.94 524.57 110.34 525.84 110.23 527.36&#10;  A 1.81 1.80 87.4 0 1 108.72 529.02&#10;  C 106.33 529.42 100.68 529.94 99.06 527.76&#10;  Q 97.22 525.30 95.95 523.24&#10;  A 2.52 2.52 0.0 0 0 93.81 522.05&#10;  L 73.51 522.05&#10;  Z&#10;  M 82.61 505.80&#10;  L 78.36 513.05&#10;  A 1.04 1.04 0.0 0 0 79.23 514.61&#10;  L 88.33 514.83&#10;  Q 91.60 514.90 89.54 512.37&#10;  Q 87.58 509.97 85.75 506.53&#10;  A 2.09 1.59 50.3 0 0 82.61 505.80&#10;  Z"/>
<path fill="#14303a" d="&#10;  M 132.19 519.13&#10;  A 1.77 1.77 0.0 0 0 133.96 520.89&#10;  L 155.81 520.89&#10;  Q 159.23 520.89 158.93 524.29&#10;  L 158.80 525.74&#10;  Q 158.50 529.17 155.06 529.13&#10;  Q 143.82 529.00 131.27 529.09&#10;  C 127.11 529.11 121.66 529.21 121.56 523.51&#10;  Q 121.47 518.54 121.63 498.50&#10;  C 121.66 493.88 128.47 494.43 131.23 495.63&#10;  Q 131.70 495.84 131.92 496.32&#10;  Q 132.34 497.23 132.32 498.26&#10;  Q 132.11 508.28 132.19 519.13&#10;  Z"/>
<path fill="#14303a" d="&#10;  M 243.19 511.58&#10;  Q 243.40 515.27 243.14 521.71&#10;  C 242.96 526.01 243.55 528.87 238.53 529.07&#10;  Q 235.92 529.18 233.88 528.41&#10;  A 2.39 2.38 10.6 0 1 232.34 526.17&#10;  Q 232.49 510.13 232.21 499.52&#10;  Q 232.11 495.68 235.90 495.11&#10;  C 239.93 494.50 243.83 494.45 246.75 497.59&#10;  Q 256.14 507.69 263.86 515.45&#10;  Q 265.95 517.56 265.95 514.59&#10;  Q 265.94 511.57 265.88 497.74&#10;  Q 265.87 496.22 268.40 495.39&#10;  Q 272.24 494.14 275.49 495.82&#10;  Q 275.90 496.03 276.00 496.48&#10;  Q 276.36 498.22 276.37 499.77&#10;  Q 276.44 512.72 276.31 525.26&#10;  Q 276.28 528.75 272.75 528.93&#10;  C 269.11 529.11 263.80 529.69 260.83 526.58&#10;  Q 252.45 517.80 245.42 510.59&#10;  Q 242.99 508.10 243.19 511.58&#10;  Z"/>
<path fill="#14303a" d="&#10;  M 184.06 522.02&#10;  A 1.71 1.69 15.5 0 0 182.62 522.82&#10;  Q 181.13 525.27 179.52 527.38&#10;  C 177.76 529.69 173.72 529.42 170.94 529.11&#10;  Q 169.23 528.92 168.58 528.20&#10;  A 1.53 1.51 23.3 0 1 168.19 527.26&#10;  Q 168.09 525.43 169.28 523.70&#10;  Q 182.26 504.66 185.30 499.68&#10;  Q 187.67 495.77 190.54 495.24&#10;  C 192.17 494.93 198.82 494.19 201.00 496.01&#10;  Q 202.10 496.92 202.91 498.16&#10;  Q 211.53 511.34 219.46 522.95&#10;  C 220.37 524.29 220.78 525.55 220.68 527.06&#10;  A 1.80 1.80 0.0 0 1 219.19 528.73&#10;  C 216.81 529.14 211.18 529.70 209.55 527.54&#10;  Q 207.71 525.10 206.43 523.05&#10;  A 2.51 2.51 0.0 0 0 204.29 521.88&#10;  L 184.06 522.02&#10;  Z&#10;  M 200.20 513.32&#10;  L 195.76 505.64&#10;  A 1.41 1.40 -44.9 0 0 193.33 505.64&#10;  L 188.85 513.41&#10;  A 0.80 0.80 0.0 0 0 189.54 514.61&#10;  L 199.46 514.61&#10;  A 0.86 0.86 0.0 0 0 200.20 513.32&#10;  Z"/>
<path fill="#14303a" d="&#10;  M 324.15 504.58&#10;  A 1.07 1.07 0.0 0 0 323.08 503.60&#10;  L 303.21 503.60&#10;  A 1.28 1.28 0.0 0 0 301.93 504.88&#10;  L 301.93 519.11&#10;  A 1.72 1.72 0.0 0 0 303.65 520.83&#10;  L 322.52 520.83&#10;  A 1.38 1.38 0.0 0 0 323.86 519.77&#10;  L 324.82 515.84&#10;  Q 324.95 515.30 325.48 515.16&#10;  Q 329.73 514.05 333.69 514.84&#10;  A 1.67 1.67 0.0 0 1 335.02 516.30&#10;  C 335.80 524.12 334.43 529.03 325.50 528.99&#10;  Q 320.24 528.96 301.00 528.94&#10;  C 299.84 528.94 296.81 528.82 295.41 528.10&#10;  Q 291.18 525.89 291.20 521.76&#10;  Q 291.24 515.03 291.25 502.75&#10;  C 291.26 495.67 297.71 494.97 303.61 494.94&#10;  Q 318.89 494.88 327.44 495.21&#10;  Q 330.51 495.32 333.04 497.53&#10;  C 335.50 499.66 335.32 504.57 334.82 507.69&#10;  Q 334.63 508.86 333.44 508.93&#10;  Q 330.45 509.12 327.19 508.83&#10;  C 325.45 508.67 324.62 508.60 324.38 506.83&#10;  Q 324.30 506.16 324.15 504.58&#10;  Z"/>
<path fill="#14303a" d="&#10;  M 363.20 516.16&#10;  Q 361.41 516.16 361.41 517.94&#10;  L 361.41 519.37&#10;  A 1.74 1.74 0.0 0 0 363.15 521.11&#10;  L 386.79 521.11&#10;  Q 389.65 521.11 389.65 523.97&#10;  L 389.65 525.95&#10;  Q 389.65 528.94 386.66 528.94&#10;  Q 363.47 528.86 358.01 529.00&#10;  C 355.21 529.06 350.55 528.90 350.56 525.25&#10;  Q 350.65 509.32 350.38 499.85&#10;  C 350.27 495.87 352.76 495.12 356.24 495.11&#10;  Q 373.00 495.05 386.69 495.01&#10;  Q 389.78 495.00 389.78 498.09&#10;  L 389.78 500.21&#10;  Q 389.78 503.10 386.89 503.10&#10;  L 363.46 503.10&#10;  Q 361.36 503.10 361.36 505.19&#10;  L 361.36 506.32&#10;  Q 361.36 508.57 363.61 508.57&#10;  L 385.40 508.57&#10;  Q 388.21 508.57 388.21 511.38&#10;  L 388.21 513.04&#10;  Q 388.21 516.16 385.10 516.16&#10;  L 363.20 516.16&#10;  Z"/>
<path fill="#14303a" d="&#10;  M 438.27 515.93&#10;  Q 434.97 516.64 438.00 518.14&#10;  C 439.93 519.09 444.75 520.60 445.78 522.25&#10;  C 447.12 524.39 447.03 528.65 443.56 528.97&#10;  C 438.84 529.41 436.30 528.68 432.44 525.90&#10;  Q 426.57 521.66 419.43 516.86&#10;  C 417.02 515.24 415.95 513.46 416.87 510.76&#10;  A 2.22 2.22 0.0 0 1 418.97 509.27&#10;  L 433.53 509.27&#10;  A 1.78 1.78 0.0 0 0 435.31 507.49&#10;  L 435.31 505.21&#10;  Q 435.31 503.55 433.64 503.55&#10;  L 415.03 503.55&#10;  A 1.17 1.16 4.3 0 0 413.87 504.54&#10;  C 413.39 507.73 414.15 510.78 413.93 513.86&#10;  Q 413.57 518.81 413.68 525.25&#10;  Q 413.73 528.03 411.76 528.83&#10;  C 409.88 529.59 406.20 529.52 404.06 528.71&#10;  A 2.67 2.66 10.3 0 1 402.33 526.22&#10;  L 402.33 498.95&#10;  A 3.84 3.84 0.0 0 1 406.13 495.11&#10;  Q 419.52 494.97 435.16 495.07&#10;  C 438.73 495.10 445.84 496.30 446.00 501.05&#10;  Q 446.30 509.43 445.65 511.39&#10;  C 444.42 515.12 441.47 515.23 438.27 515.93&#10;  Z"/>
</svg>